<svg id="Layer_1" data-name="Layer 1" xmlns="http://www.w3.org/2000/svg" viewBox="0 0 383.44 143.47"><title>logo</title><path d="M93.24,446.58c2.56-3.77,6.23-6.17,9.28-9.17,2.4-2.35,4.64-4.93,7.62-6.66,1-.54.52-1.67.53-2.53q0-16.25,0-32.49c0-3.41.24-3.68,3.71-3.7,4.25,0,8.5.06,12.75,0,1.91,0,2.73.62,2.69,2.59-.08,4.07,0,8.15,0,12.22,0,.71-.33,1.61.51,2s1.55-.34,2.13-.89q10.14-9.66,20.23-19.35c6-5.76,12-11.5,18-17.3,1.47-1.43,2.68-3.14,4.14-4.58,1.87-1.86,2.36-1.52,4.07.39,2.36,2.64,5.14,4.9,7.7,7.36q11.79,11.32,23.53,22.69c5,4.87,10,9.76,15.09,14.63q16.13,15.58,32.27,31.14a4,4,0,0,1,.37.34c.75.94,2.25,1.7,1.63,3.08s-2.07.69-3.17.72c-4.49.13-9,.23-13.47.25-1.66,0-1,1.21-1.05,1.92-.06,6.49,0,13-.06,19.49,0,.59,0,1.17,0,1.75,0,.95-.21,1.63-1.35,1.66s-1.52-.69-1.58-1.56c-.11-1.74-.09-3.49-.09-5.24,0-5.92,0-11.83,0-17.75,0-2.44,1-3.17,3.41-3.11,3.39.07,6.79,0,10.19-.07.4,0,.92.09,1.09-.38.33-.94-.58-1.33-1-1.79q-8.06-8-16.21-15.81-11.28-10.87-22.61-21.71c-4.41-4.24-8.49-8.91-13.3-12.65C193,386.44,187.62,379,180.75,373c-.18-.16-.34-.37-.51-.54-3.32-3.2-3-2.88-6.29.22-3.83,3.63-7.13,7.78-11.53,10.91a32.63,32.63,0,0,0-8.13,8.19c-1.59,2.34-4,4.15-6.28,6a231.75,231.75,0,0,0-17.19,16.12,2.8,2.8,0,0,1-2.78,1c-1.29-.29-.86-1.49-.87-2.3-.07-5-.11-10,0-15,0-1.81-.31-2.75-2.46-2.6a56.65,56.65,0,0,1-8.24-.06c-2.33-.18-2.77.81-2.75,2.89.08,10.33,0,20.66.09,31a5.52,5.52,0,0,1-2.14,4.69c-3.55,3.05-6.94,6.29-10.41,9.45-.35.31-.6.62-.32,1a1.42,1.42,0,0,0,1.58.45c3.23-.58,6.46.09,9.68,0s3.53.21,3.53,3.54c0,18.33.06,36.66,0,55,0,2.36.77,3,3,2.94,16.5-.08,33,0,49.5,0,1.07,0,2.79-.71,2.79,1.4,0,1.94-1.53,1.58-2.73,1.58H116c-3.08,0-3.39-.33-3.39-3.49q0-27.12,0-54.24c0-3.7,0-3.7-3.8-3.7s-7.66,0-11.5,0A7.87,7.87,0,0,1,93.24,446.58Z" transform="translate(-93.24 -365.49)" style="fill:#fa0"/><path d="M187.73,426.3c-2.24,0-4.49,0-6.74,0-1.72,0-2.66-.61-2.64-2.46q.06-6.12,0-12.23c0-1.85.91-2.49,2.63-2.47q6.73.06,13.48,0c1.5,0,2.09.61,2.08,2.08,0,4.33,0,8.65,0,13,0,1.51-.63,2.1-2.09,2.07-2.25,0-4.49,0-6.74,0ZM187,412.21a39.77,39.77,0,0,1-4.23,0c-1.36-.15-1.7.32-1.66,1.6.08,2.57.08,5.15,0,7.72,0,1.5.51,2.12,2,2.06,2.07-.07,4.15,0,6.23,0,4.45,0,4.45,0,4.46-4.47C193.83,412.19,193.83,412.19,187,412.21Z" transform="translate(-93.24 -365.49)" style="fill:#fa0"/><path d="M187.5,445.83c-2.25,0-4.5-.06-6.75,0-1.55.06-2.36-.5-2.36-2.11,0-4.24,0-8.49,0-12.74,0-1.05.29-1.89,1.67-2,4.66-.33,9.32-.29,14-.26,1.8,0,2.64.72,2.55,2.74-.17,4-.08,8,0,12,0,1.67-.56,2.46-2.33,2.39-2.24-.09-4.49,0-6.74,0Zm-.09-2.79c1.58,0,3.16,0,4.75,0,1.12,0,1.69-.34,1.67-1.56-.05-2.66-.06-5.33,0-8,0-1.28-.53-1.81-1.75-1.84-1.92,0-3.82-.19-5.74-.2-5.23,0-5.23,0-5.23,5.21C181.12,443.05,181.12,443.05,187.41,443Z" transform="translate(-93.24 -365.49)" style="fill:#fa0"/><path d="M167.17,426.27c-2.33,0-4.66,0-7,0-1.37,0-2-.58-2-1.94,0-4.41,0-8.81,0-13.22,0-1.34.6-2,2-1.95,4.66,0,9.31,0,14,0,1.34,0,2,.59,1.94,2q0,6.6,0,13.21c0,1.38-.63,2-2,2-2.33,0-4.65,0-7,0Zm.09-14.32H166c-5,0-5,0-5,5,0,6.62,0,6.62,6.87,6.62,5.52,0,5.52,0,5.51-5.46C173.38,412,173.38,412,167.26,412Z" transform="translate(-93.24 -365.49)" style="fill:#fa0"/><path d="M167.09,445.83c-2.25,0-4.5,0-6.74,0-1.46,0-2.14-.51-2.12-2q.06-6.49,0-13c0-1.42.63-1.85,2-1.83q6.87.09,13.73,0c1.64,0,2.21.66,2.18,2.24-.06,4.08-.07,8.16,0,12.24,0,1.72-.56,2.44-2.3,2.38-2.24-.08-4.49,0-6.74,0Zm.07-2.78h1c5.24,0,5.24,0,5.23-5.2,0-6.41,0-6.41-6.56-6.41-5.88,0-5.88,0-5.82,5.61C161.06,443.05,161.06,443.05,167.16,443.05Z" transform="translate(-93.24 -365.49)" style="fill:#fa0"/><path d="M182.69,481.37c0,2.92,0,5.83,0,8.74,0,1-.11,1.51-1.31,1.52s-1.24-.73-1.24-1.6c0-3.66,0-7.33,0-11,0-.81-.44-2.1,1.1-2,1.18.11,2.72-.75,3.39,1.16.94,2.65,2,5.25,3.25,8.49,1.25-3.14,2.44-5.66,3.25-8.29.67-2.16,2.26-1.26,3.49-1.34,1.53-.1,1,1.24,1,2,.05,3.58,0,7.16,0,10.75,0,.92.16,1.81-1.32,1.79s-1.21-1-1.21-1.88a43.35,43.35,0,0,0-.54-8.21c-1.06,2.82-2.11,5.64-3.18,8.46-.28.74-.34,1.66-1.54,1.62s-1.22-.89-1.5-1.66c-1.06-2.93-2.15-5.85-3.22-8.77Z" transform="translate(-93.24 -365.49)" style="fill:#404040"/><path d="M433,481.22c0,3.44,0,6.13,0,8.82,0,.92,0,1.61-1.26,1.61s-1.52-.47-1.49-1.64c.08-3.49,0-7,.06-10.48,0-.82-.75-2.21.85-2.42,1.27-.17,2.59-.36,3.49,1.15a67.39,67.39,0,0,0,6,8.54c0-2.66,0-5.32,0-8,0-.87-.24-1.86,1.29-1.83s1.36.84,1.36,1.81c0,3.49,0,7-.05,10.47,0,.77.67,2.06-.68,2.26s-2.57.5-3.47-1.1c-1.51-2.66-3.27-5.19-4.93-7.77C434,482.36,433.71,482.1,433,481.22Z" transform="translate(-93.24 -365.49)" style="fill:#404040"/><path d="M376.39,486c0-2.38,0-4.76,0-7.14,0-1.11,0-1.9,1.56-1.85s1.26,1,1.26,1.84c0,3.49,0,7,0,10.48,0,.76.65,2.05-.77,2.18-1.13.1-2.44.52-3.29-1-1.41-2.45-3-4.79-4.53-7.16-.33-.5-.63-1.34-1.4-1.08s-.37,1-.38,1.55c0,2.08,0,4.16,0,6.24,0,1-.16,1.52-1.34,1.51s-1.36-.48-1.35-1.49c0-3.66,0-7.32,0-11,0-.72-.52-1.89.72-2s2.47-.55,3.36.86c1.75,2.79,3.6,5.51,5.41,8.26Z" transform="translate(-93.24 -365.49)" style="fill:#404040"/><path d="M336,486.09c0-2.47,0-4.94,0-7.41,0-.88-.06-1.63,1.23-1.66s1.46.6,1.45,1.68c0,3.58,0,7.16,0,10.74,0,.71.61,1.92-.6,2.07s-2.57.6-3.48-1.05c-1.36-2.47-3-4.79-4.56-7.15-.3-.44-.49-1.22-1.22-1s-.46,1-.47,1.48c0,2.16-.09,4.33,0,6.49.05,1.18-.47,1.34-1.47,1.39s-1.2-.52-1.2-1.38c0-3.66,0-7.33.05-11,0-.76-.64-2.07.85-2.16,1.15-.08,2.46-.48,3.33,1,1.51,2.49,3.16,4.89,4.76,7.32a9.15,9.15,0,0,0,.77.88Zm-7.36-4.37-.14-.17-.16.14.21.18Z" transform="translate(-93.24 -365.49)" style="fill:#404040"/><path d="M169.29,486.91c0,4.27-.16,4.42-4.51,4.95-3.83.48-7-1-8.42-3.93A8.74,8.74,0,0,1,157.5,479c2.06-2.23,6.41-3,9.51-1.63.71.31,2.06.44,1.43,1.7-.46.91-1.16,1.7-2.57.85a4.62,4.62,0,0,0-5.38.21,5,5,0,0,0-1.89,5.08,5.09,5.09,0,0,0,7,3.9c1.36-.55.86-1.59.95-2.51.11-1.15-.7-1.14-1.46-1.1-1,.07-1.48-.25-1.46-1.4s.73-1,1.48-1.07C169.31,482.78,169.31,482.77,169.29,486.91Z" transform="translate(-93.24 -365.49)" style="fill:#404040"/><path d="M355.62,487c0,4.12-.18,4.31-4.33,4.86-4.4.58-8-1.52-9.05-5.24s.64-7.83,4-9.24a9.56,9.56,0,0,1,7.75.2c.56.24,1.41.52.95,1.3s-.85,1.77-2.07,1.3c-.46-.17-.87-.52-1.34-.65-2.16-.6-4.13-.37-5.61,1.53a5.39,5.39,0,0,0-.11,6.28c1.36,2,3.25,2.32,5.49,1.91,1.42-.26,1.59-1.1,1.63-2.31s-.58-1.58-1.66-1.47-1.18-.5-1.19-1.38.48-1,1.24-1.09C355.63,482.57,355.63,482.55,355.62,487Z" transform="translate(-93.24 -365.49)" style="fill:#404040"/><path d="M460.19,487c0,4.09-.18,4.28-4.32,4.81-5.68.71-9.43-2.51-9.25-7.92a6.79,6.79,0,0,1,3.75-6.3,9.35,9.35,0,0,1,8.42.09c.42.2,1.28.53.75,1.25s-.83,1.58-1.9,1.31c-.55-.14-1-.54-1.57-.7-2.16-.66-4.15-.45-5.58,1.49a5.37,5.37,0,0,0-.16,6.33c1.07,1.78,3.6,2.43,5.79,1.83,1.25-.34,1.43-1.12,1.45-2.23s-.51-1.65-1.66-1.51c-.92.12-1.36-.2-1.35-1.22s.42-1.2,1.34-1.27C460.19,482.68,460.19,482.64,460.19,487Z" transform="translate(-93.24 -365.49)" style="fill:#404040"/><path d="M420.76,491.32c-2.81,1-3.6-.68-4.65-2.37-.76-1.22-.8-3.75-2.72-3.3-1.69.4-.49,2.58-.76,3.94-.18.89.36,2-1.35,2s-1.38-1-1.38-2c0-3.58.05-7.15,0-10.73,0-1.36.32-2,1.81-1.88,1.82.18,3.65-.17,5.46.32,1.55.41,2.83,1,3.06,2.8s.22,3.72-1.68,4.55c-1.41.61-1,1.21-.49,2C418.9,488.22,419.79,489.7,420.76,491.32Zm-6.07-11.79c-1.23-.19-2.3-.13-2.1,1.66.1.95-.26,2.25,1.37,2,1.35-.21,3.38.36,3.48-1.87C417.52,479.65,416.1,479.46,414.69,479.53Z" transform="translate(-93.24 -365.49)" style="fill:#404040"/><path d="M396.56,484.49c0-1.91.06-3.83,0-5.74-.05-1.25.29-1.8,1.67-1.73,2.16.12,4.33.06,6.49,0,1,0,1.54.15,1.51,1.35s-.62,1.16-1.45,1.13c-1.16,0-2.33,0-3.49,0s-2.16-.06-2.15,1.73.83,1.84,2.12,1.76c1.08-.06,2.17,0,3.24,0s1.33.22,1.31,1.27-.45,1.26-1.37,1.2-2,0-3,0c-1.33-.06-2.31-.13-2.31,1.86s1.09,1.82,2.35,1.8,2.5,0,3.75,0c1.06,0,1.42.36,1.44,1.45s-.69,1.1-1.44,1.1c-2.41,0-4.83-.06-7.24.05-1.34.06-1.49-.56-1.46-1.65.06-1.82,0-3.66,0-5.49Z" transform="translate(-93.24 -365.49)" style="fill:#404040"/><path d="M312.25,484.43c0-1.74.12-3.5,0-5.23s.64-2.27,2.29-2.18c2,.11,4,.05,6,0,1.05,0,1.51.35,1.49,1.44s-.79,1-1.54,1c-1.08,0-2.16,0-3.24,0s-2.16-.13-2.17,1.68.75,1.9,2.1,1.8c1.07-.08,2.16,0,3.24,0,.74,0,1.27.09,1.25,1.07s-.32,1.4-1.29,1.38-2,0-3,0c-1.37-.09-2.26-.08-2.3,1.85-.05,2.09,1.09,1.8,2.34,1.78s2.5.06,3.74,0,1.14.6,1.19,1.41-.34,1.19-1.16,1.18c-2.58,0-5.16,0-7.73,0-1.06,0-1.2-.58-1.19-1.44C312.27,488.26,312.24,486.34,312.25,484.43Z" transform="translate(-93.24 -365.49)" style="fill:#404040"/><path d="M383.29,484.28c.16-2.36-1.21-5.9.4-6.83,2.06-1.2,5.3-.35,8-.4.74,0,1,.31,1.06,1s0,1.52-1.13,1.45-2,0-3,0c-1.35,0-2.82-.46-2.75,2s1.59,1.34,2.59,1.48a14.75,14.75,0,0,0,2.74,0c.8,0,1.22.23,1.23,1.13s-.35,1.37-1.3,1.34c-1.25,0-2.5,0-3.74,0s-1.54.63-1.49,1.71-.14,2.07,1.44,2,3,0,4.49,0c1,0,1.33.33,1.32,1.31s-.32,1.4-1.32,1.27c-.49-.06-1,0-1.49,0-2.36-.19-5.54,1.06-6.86-.54C382.39,489.66,383.29,486.6,383.29,484.28Z" transform="translate(-93.24 -365.49)" style="fill:#404040"/><path d="M211.43,482.62c0,1.33.09,2.67,0,4-.29,3.44-2.54,5.4-6,5.31s-5.57-2.15-5.67-5.63c-.08-2.57,0-5.15,0-7.73,0-1,.17-1.56,1.36-1.53s1.39.52,1.37,1.54c0,2.49,0,5,0,7.48,0,2,1,3.17,3,3.21s3.16-1.2,3.19-3.28q.06-3.62,0-7.23c0-1,.08-1.76,1.43-1.73s1.31.68,1.29,1.61c0,1.33,0,2.66,0,4Z" transform="translate(-93.24 -365.49)" style="fill:#404040"/><path d="M132.92,491.88a5.06,5.06,0,0,1-3.32-.85c-.54-.41-1.56-.74-.74-1.67.58-.65,1.1-1.89,2.32-.68a2.76,2.76,0,0,0,2.32.71c.95-.12,1.81-.52,2-1.58a1.71,1.71,0,0,0-1.3-1.88l-1.64-.61c-3.09-1.15-4.15-2.63-3.64-5.05.49-2.27,2.75-3.77,5.56-3.59a7.07,7.07,0,0,1,2.17.5c.64.25,1.79.44,1.38,1.37-.33.76-.95,1.87-2.29,1.27a5.41,5.41,0,0,0-1.64-.52c-.94-.08-1.89.12-2.22,1.18s.4,1.68,1.32,2c.46.19.94.33,1.4.5,3.3,1.2,4.25,2.53,3.74,5.2Q137.59,491.92,132.92,491.88Z" transform="translate(-93.24 -365.49)" style="fill:#404040"/><path d="M258.18,491.92c-3.45,0-6.06-1.53-7.08-4.47s-.87-6.09,1.51-8.59a7.8,7.8,0,0,1,8.33-1.57c.84.4,2.47.72,1.82,2.11-.54,1.15-1.68,1.11-2.95.35a4.16,4.16,0,0,0-5.49,1.45,5.59,5.59,0,0,0,.36,6.71c1.55,1.69,3.74,2.12,5.56.66,1.39-1.1,2.32-.46,2.87.48s-.67,1.46-1.37,1.94A5.94,5.94,0,0,1,258.18,491.92Z" transform="translate(-93.24 -365.49)" style="fill:#404040"/><path d="M147,487.28a48.76,48.76,0,0,0,3.5-8.76c.55-1.58,1.51-1.8,2.6-1.42,1.44.5.28,1.53,0,2.21-1.36,3.57-2.83,7.1-4.24,10.65-.34.86-.57,1.62-1.81,1.67-1.46.07-1.57-.94-1.92-1.83-1.36-3.48-2.74-6.95-4.05-10.44-.27-.72-1.38-1.77,0-2.24a2,2,0,0,1,2.84,1.48C144.75,481.43,145.9,484.16,147,487.28Z" transform="translate(-93.24 -365.49)" style="fill:#404040"/><path d="M278.16,486.71c1.3-2.28,1.89-4.87,2.89-7.29.23-.54.35-1.12.62-1.63.63-1.16,1.84-.91,2.64-.6s.09,1.14-.13,1.7c-1.46,3.7-3,7.38-4.44,11.08-.33.84-.51,1.67-1.79,1.66s-1.5-.68-1.85-1.59c-1.39-3.65-2.86-7.26-4.22-10.91-.22-.61-1.4-1.58-.06-2,.94-.3,2.29-.54,2.81,1.13.76,2.45,1.72,4.84,2.6,7.25C277.39,486,277.44,486.49,278.16,486.71Z" transform="translate(-93.24 -365.49)" style="fill:#404040"/><path d="M228,485.64c0-.84,0-1.67,0-2.5.06-3.36.06-3.39-3.15-3.61-.86-.06-1.44-.14-1.4-1.22s.45-1.29,1.39-1.28c3,0,6,0,9,0,.83,0,1.21.32,1.25,1.15.06,1-.44,1.46-1.34,1.27-3.09-.64-3.27,1.08-3.11,3.46s0,4.82.05,7.23c0,1-.24,1.46-1.37,1.47s-1.37-.52-1.33-1.51c.06-1.5,0-3,0-4.49Z" transform="translate(-93.24 -365.49)" style="fill:#404040"/><path d="M293.76,484.38c0-1.91.05-3.82,0-5.74-.05-1.19.39-1.6,1.58-1.62s1.31.66,1.3,1.59c0,2.83.06,5.66,0,8.49-.06,1.52.46,2.13,2,2,.9-.09,1.83,0,2.74,0s1.33.26,1.35,1.28-.35,1.29-1.29,1.27c-2.08,0-4.16,0-6.23,0-1.14,0-1.43-.46-1.41-1.49,0-1.91,0-3.82,0-5.74Z" transform="translate(-93.24 -365.49)" style="fill:#404040"/><path d="M215.37,484.22c0-1.83,0-3.65,0-5.48,0-1.05.11-1.74,1.44-1.72s1.3.7,1.29,1.62c0,2.82.08,5.65,0,8.46-.05,1.53.42,2.15,2,2,1-.1,2,0,3,0s1.15.57,1.2,1.4-.3,1.17-1.15,1.16c-2.16,0-4.32,0-6.47,0-1.06,0-1.23-.54-1.22-1.4,0-2,0-4,0-6Z" transform="translate(-93.24 -365.49)" style="fill:#404040"/><path d="M209.16,503.49c0-3.08,1.74-5.09,4.53-5.11,2.94,0,4.79,2.11,4.79,5.2,0,1.54-1.9,3-.09,4.69.21.2-.68.64-1.12.35a3.19,3.19,0,0,0-2.58-.36C211.49,508.81,209.22,506.79,209.16,503.49Zm5.86,2.24c1.5,0,1.86-.38,1.88-2.26,0-2.24-1.18-3.81-3-3.86s-3.24,1.41-3.29,3.59a4.48,4.48,0,0,0,1.53,3.48C213.92,508.41,213.66,504.75,215,505.73Z" transform="translate(-93.24 -365.49)" style="fill:#404040"/><path d="M195.11,502.11V507c0,.59,0,1.26-.82,1.23s-.63-.65-.63-1.13q0-3.61,0-7.25c0-.47-.12-1.05.54-1.23a1.27,1.27,0,0,1,1.44.71l3.76,5.64c.83-1.83.28-3.38.46-4.85.08-.6-.21-1.53.81-1.47.84,0,.59.87.59,1.4,0,2.24,0,4.49,0,6.74,0,.56.22,1.25-.57,1.46s-1.06-.28-1.4-.8c-1.22-1.83-2.46-3.64-3.69-5.46Z" transform="translate(-93.24 -365.49)" style="fill:#404040"/><path d="M321.81,508.39c-1.6-.09-3-.48-3.66-2.11-.17-.44-.42-1,.24-1.27a.83.83,0,0,1,1.05.42,5.63,5.63,0,0,0,.73,1,2.74,2.74,0,0,0,3,.33,1.17,1.17,0,0,0,.84-1.37c-.28-1.05-1.23-1.24-2.13-1.44-.24-.06-.47-.17-.72-.21-1.5-.28-2.79-.91-2.9-2.59a2.32,2.32,0,0,1,1.71-2.48c1.66-.49,3.29-.54,4.62.84.47.49,1,1.17.4,1.74-.77.74-1.1-.09-1.44-.66a2.06,2.06,0,0,0-2.15-.92c-.79.07-1.52.29-1.58,1.24s.56,1.15,1.24,1.32,1.14.21,1.69.38c1.6.5,3.09,1.22,2.72,3.24S323.62,508.4,321.81,508.39Z" transform="translate(-93.24 -365.49)" style="fill:#404040"/><path d="M251.56,498.4c3.48,0,5.52,3.26,4.33,6.93-.28.86-1.09,1.59.08,2.57.58.49-.11,1.15-.77.71-1.12-.76-2.19-.37-3.34-.27-2.73.26-4.79-1.74-5-4.7S248.65,498.4,251.56,498.4Zm.94,7.26c2.12.68,2.05-.77,2.16-1.83.25-2.36-.94-4-2.9-4.17-1.81-.16-3.11,1.11-3.3,3.24S248.6,505.33,252.5,505.66Z" transform="translate(-93.24 -365.49)" style="fill:#404040"/><path d="M347.14,508c-1.35.56-1.86-.07-2.39-.93a17.3,17.3,0,0,0-1.95-2.56,2,2,0,0,0-2.11-.39c-.91.23-.49,1.09-.59,1.67a10.71,10.71,0,0,0,0,1.5c0,.56-.22,1-.86.93s-.55-.54-.55-.94c0-2.57,0-5.15,0-7.72a1.23,1.23,0,0,1,.34-.86c.84-.71,6.16,0,6.85.93s.94,2.37.07,3c-2,1.38-.76,2.39,0,3.56C346.35,506.68,346.68,507.24,347.14,508Zm-5-8.22c-1,0-2-.3-2,1.34,0,1.31.36,1.76,1.68,1.58,1.16-.15,2.78.39,3-1.29C345,499.5,343.21,500,342.12,499.77Z" transform="translate(-93.24 -365.49)" style="fill:#404040"/><path d="M389.09,498.39c1.28.05,2.5.25,3.17,1.53.23.42.54.95,0,1.35s-.89,0-1.17-.45a2.19,2.19,0,0,0-2.75-1.05c-.58.17-1.1.35-1.16,1.09s.36,1.05,1,1.24c1,.32,2.07.57,3.08.94a2.38,2.38,0,0,1,1.65,2.51,2.61,2.61,0,0,1-1.75,2.47c-2.1.91-4.91.11-5.64-1.63-.18-.43-.55-.94.06-1.31s.9-.15,1.2.42a3.36,3.36,0,0,0,.94,1.11,2.74,2.74,0,0,0,2.83.14,1.22,1.22,0,0,0,.83-1.38c-.3-1-1.26-1.2-2.13-1.46a11.18,11.18,0,0,1-2.35-.78,2.3,2.3,0,0,1-1.06-3C386.38,498.63,387.68,498.37,389.09,498.39Z" transform="translate(-93.24 -365.49)" style="fill:#404040"/><path d="M332.06,508.27c-3.49,0-3.49,0-3.52-3.38,0-.5,0-1,0-1.49.1-5.19.73-5.7,6-4.86.41.07.92,0,1,.54.09.68-.47.8-1,.82-1.08,0-2.17.05-3.25,0-.92,0-1.37.32-1.39,1.29s.42,1.34,1.34,1.33,2,0,3,0c.44,0,.87.14.87.65s-.38.7-.84.71c-.92,0-1.84.06-2.75,0-1.14-.06-1.62.35-1.65,1.56s.43,1.6,1.59,1.5a32,32,0,0,1,3.25,0c.47,0,1.09-.06,1,.71-.06.49-.49.6-.94.6Z" transform="translate(-93.24 -365.49)" style="fill:#404040"/><path d="M359.36,484.26c0-1.9,0-3.81,0-5.72,0-1,.27-1.51,1.4-1.51s1.35.58,1.35,1.55c0,3.9-.05,7.8,0,11.69,0,1.19-.55,1.35-1.53,1.35s-1.22-.48-1.2-1.39c.06-2,0-4,0-6Z" transform="translate(-93.24 -365.49)" style="fill:#404040"/><path d="M375.54,503.24c.06-4.7.06-4.7,4.64-4.69a3.14,3.14,0,0,1,.75,0c.57.12,1.57-.37,1.6.6,0,1.2-1.08.7-1.73.76a20.94,20.94,0,0,1-2.24,0c-.89,0-1.59.07-1.62,1.31s.58,1.24,1.52,1.35c1.22.15,3.49-.65,3.43.59-.08,1.65-2.25.57-3.47.69s-1.45.53-1.47,1.66.46,1.56,1.59,1.48,2.16,0,3.24,0c.4,0,.87,0,.87.59s-.35.7-.81.71c-1.75,0-3.49,0-5.24,0-.92,0-1.07-.55-1.06-1.31C375.56,505.73,375.54,504.48,375.54,503.24Z" transform="translate(-93.24 -365.49)" style="fill:#404040"/><path d="M365.69,503.24c0,1.55.27,3,1.81,3.58a2.56,2.56,0,0,0,3.56-1.32c.31-.62.74-1,1.35-.45s.14.91-.12,1.32a4.07,4.07,0,0,1-4.74,1.87c-2.66-.61-4-3.48-3.13-6.6a4.43,4.43,0,0,1,5.87-3.05,3.22,3.22,0,0,1,1.86,1.57c.18.38.48.78.12,1.12a.76.76,0,0,1-1.26-.22,2.53,2.53,0,0,0-3.6-1.1C366,500.64,365.74,501.92,365.69,503.24Z" transform="translate(-93.24 -365.49)" style="fill:#404040"/><path d="M232.17,503.46c0-5.31.54-5.72,6-4.92.49.07,1.08,0,1,.74,0,.5-.49.62-.92.63a5.25,5.25,0,0,0-1.49,0c-1,.38-3-1.1-3.06,1.2s1.92,1,3,1.37a4.25,4.25,0,0,0,1.24,0c.51,0,1.07,0,1,.75,0,.49-.45.63-.91.63-.83,0-1.67,0-2.5,0-1.12-.08-1.85,0-1.88,1.52s.75,1.43,1.82,1.56c1.34.17,3.66-.85,3.75.69.07,1.21-2.4.49-3.71.54C232.14,508.35,232.14,508.26,232.17,503.46Z" transform="translate(-93.24 -365.49)" style="fill:#404040"/><path d="M277.7,507.25c0,.57,0,.89-.44,1-.57.1-.86-.23-1.15-.7q-2.85-4.5-5.43,0c-.28.49-.53.87-1.1.69s-.46-.76-.27-1.23c1-2.55,1.92-5.11,3-7.63.38-.91,1.38-1.37,1.89-.34C275.51,501.74,276.59,504.61,277.7,507.25Zm-4.41-6.47c-.19,1.11-1.6,1.92-.82,3.1a1.34,1.34,0,0,0,1.78,0C274.9,502.76,273.8,501.85,273.29,500.78Z" transform="translate(-93.24 -365.49)" style="fill:#404040"/><path d="M182.74,502.34c0-.91,0-1.83,0-2.74,0-.5.06-1.07.76-1s.68.6.69,1.1c0,1.5,0,3,0,4.48s.48,2.78,2.29,2.87,2.4-1.23,2.5-2.75,0-3,.06-4.47c0-.55-.13-1.29.79-1.21.71.06.61.68.61,1.15,0,1.66,0,3.32-.1,5-.23,2.71-1.43,3.75-4,3.67s-3.54-1.31-3.65-4.06C182.71,503.67,182.74,503,182.74,502.34Z" transform="translate(-93.24 -365.49)" style="fill:#404040"/><path d="M266.68,502.32c0,.75,0,1.5,0,2.25-.1,2.5-1.29,3.75-3.63,3.83s-3.72-1-3.9-3.5c-.13-1.73-.07-3.48-.08-5.23,0-.49,0-1.09.68-1.07s.67.61.68,1.09c0,1.33,0,2.67,0,4,.05,1.65.23,3.32,2.43,3.34s2.42-1.57,2.39-3.28c0-1.41,0-2.83,0-4.24a.8.8,0,0,1,.95-.88c.61.06.45.6.46,1C266.71,500.49,266.68,501.41,266.68,502.32Z" transform="translate(-93.24 -365.49)" style="fill:#404040"/><path d="M227.54,501.77c.31-.9-.62-3,.63-3,1.5,0,.55,2,.73,3.11a11.52,11.52,0,0,1,0,3c-.27,2.55-1.46,3.59-3.91,3.52a3.38,3.38,0,0,1-3.67-3.54c-.09-1.66,0-3.33,0-5,0-.61.05-1.28.85-1.24s.55.87.57,1.35c.05,1.34,0,2.67,0,4,0,1.68.4,3,2.42,3s2.34-1.47,2.43-3C227.58,503.31,227.54,502.64,227.54,501.77Z" transform="translate(-93.24 -365.49)" style="fill:#404040"/><path d="M287.17,484.48c0-2,0-4,0-6,0-1,.14-1.55,1.35-1.51s1.29.7,1.28,1.61c0,3.81-.06,7.61,0,11.42,0,1.18-.32,1.56-1.53,1.58-1.46,0-1.07-.95-1.09-1.68C287.14,488.12,287.17,486.3,287.17,484.48Z" transform="translate(-93.24 -365.49)" style="fill:#404040"/><path d="M426.28,484.24c0,2,0,4,0,6,0,1.12-.44,1.42-1.48,1.4s-1.28-.43-1.27-1.35c0-3.9,0-7.8,0-11.69,0-.94.14-1.55,1.34-1.54s1.4.48,1.37,1.49c-.06,1.91,0,3.81,0,5.72Z" transform="translate(-93.24 -365.49)" style="fill:#404040"/><path d="M266.07,484.29c0-1.83,0-3.66,0-5.49,0-1,0-1.78,1.38-1.79s1.25.75,1.25,1.62c0,3.83,0,7.66,0,11.48,0,1-.25,1.49-1.39,1.5s-1.26-.67-1.24-1.58c0-1.91,0-3.83,0-5.74Z" transform="translate(-93.24 -365.49)" style="fill:#404040"/><path d="M353.07,505.74c.76-2,1.52-4,2.26-6,.24-.63.47-1.45,1.31-1.13s.2,1,0,1.49c-.9,2.41-1.87,4.78-2.8,7.17-.18.48-.36,1-.95,1a1.32,1.32,0,0,1-1.26-1c-.9-2.4-1.85-4.78-2.74-7.19-.17-.47-.75-1.17.05-1.48s1.09.46,1.32,1.1c.73,2,1.47,4,2.2,6Z" transform="translate(-93.24 -365.49)" style="fill:#404040"/><path d="M237.56,484.37c0-1.91,0-3.81,0-5.72,0-.93.07-1.59,1.28-1.64s1.51.6,1.5,1.68c0,3.81-.06,7.63,0,11.45,0,1.06-.34,1.45-1.43,1.47s-1.34-.54-1.32-1.51c.05-1.91,0-3.82,0-5.73Z" transform="translate(-93.24 -365.49)" style="fill:#404040"/><path d="M474.5,478.24c-1.17-.24-1.9.47-1.93,1.72s.72,2.11,2.05,1.87c.85-.16,1.87-.59,2,.53s-1.13,1.14-2,1.21a3.26,3.26,0,0,1-3.55-1.73,3.72,3.72,0,0,1,.23-4,3.5,3.5,0,0,1,3.75-1.37c.68.12,1.76.17,1.62,1.13S475.62,478.75,474.5,478.24Z" transform="translate(-93.24 -365.49)" style="fill:#404040"/><path d="M306.84,502.28c1.59-.92,1.54-3.56,4-3.77a3.46,3.46,0,0,1-1.14,2.38c-1.34,1.82-2.7,3.59-2.23,6.08.09.49,0,1.06-.54,1.25a.58.58,0,0,1-.75-.46c-.29-1.59.17-3.27-.93-4.79a14.61,14.61,0,0,1-2.62-4.35C305.34,498.52,305.1,501.56,306.84,502.28Z" transform="translate(-93.24 -365.49)" style="fill:#404040"/><path d="M467.15,481.88c1.06-.45,1.74-.32,1.91.48s-.67,1-1.27,1.14c-1.54.25-3.05.11-4-1.31a3.72,3.72,0,0,1,.06-4.45c1-1.38,2.49-1.55,4-1.26.62.12,1.46.31,1.26,1.19a1.06,1.06,0,0,1-1.54.8c-1.59-.64-2.46-.05-2.49,1.6S466.2,481.86,467.15,481.88Z" transform="translate(-93.24 -365.49)" style="fill:#404040"/><path d="M297,498.54a3.65,3.65,0,0,1,.74,0c1,.19,2.7-.59,2.89.49.28,1.57-1.44.6-2.23.91s-.65.86-.65,1.4c0,1.82,0,3.64,0,5.46,0,.53.22,1.34-.6,1.39-1,.05-.82-.84-.83-1.47,0-1.15,0-2.32,0-3.47-.1-1.6.82-4-2.41-3.37-.38.07-.61-.27-.62-.62,0-.51.34-.73.78-.74,1,0,2,0,3,0Z" transform="translate(-93.24 -365.49)" style="fill:#404040"/><path d="M280.16,503.4c0-1.24,0-2.48,0-3.72,0-.49,0-1.09.67-1.09s.77.52.77,1.05a35.23,35.23,0,0,1,0,4.71c-.29,2.23.53,2.95,2.68,2.65.59-.08,1.77-.53,1.8.58s-1.14.63-1.76.66C280.16,508.4,280.16,508.38,280.16,503.4Z" transform="translate(-93.24 -365.49)" style="fill:#404040"/><path d="M289.06,503.43c0-1.33,0-2.66,0-4,0-.45.11-.84.65-.85s.73.32.73.79q0,4,0,8c0,.46-.19.85-.68.85-.66,0-.75-.51-.75-1.05v-3.74Z" transform="translate(-93.24 -365.49)" style="fill:#404040"/><path d="M206.18,503.25c0,1.33,0,2.66,0,4,0,.39.05.91-.52,1s-.89-.35-.89-.91q0-3.87,0-7.73c0-.53.14-1.05.81-1,.51,0,.6.5.61.93C206.19,500.76,206.18,502,206.18,503.25Z" transform="translate(-93.24 -365.49)" style="fill:#404040"/><path d="M361.19,503.18q0,2,0,4c0,.49,0,1.06-.73,1a.77.77,0,0,1-.72-.85c0-2.66,0-5.32,0-8a.72.72,0,0,1,.76-.79c.52,0,.65.43.65.87C361.2,500.68,361.19,501.93,361.19,503.18Z" transform="translate(-93.24 -365.49)" style="fill:#404040"/><path d="M328.68,481.72l-.09.15-.21-.18.16-.14Z" transform="translate(-93.24 -365.49)" style="fill:#fdfdfd"/></svg>